<?xml version="1.0" encoding="UTF-8"?>
<!DOCTYPE svg PUBLIC "-//W3C//DTD SVG 1.1//EN" "http://www.w3.org/Graphics/SVG/1.1/DTD/svg11.dtd">
<!-- Creator: CorelDRAW 2020 (64-Bit) -->
<svg xmlns="http://www.w3.org/2000/svg" xml:space="preserve" width="200px" height="81px" version="1.1" style="shape-rendering:geometricPrecision; text-rendering:geometricPrecision; image-rendering:optimizeQuality; fill-rule:evenodd; clip-rule:evenodd"
viewBox="0 0 14583 5895"
 xmlns:xlink="http://www.w3.org/1999/xlink"
 xmlns:xodm="http://www.corel.com/coreldraw/odm/2003">
 <defs>
  <style type="text/css">
   <![CDATA[
    .fil0 {fill:#FEFEFE}
    .fil1 {fill:#FEFEFE;fill-rule:nonzero}
   ]]>
  </style>
 </defs>
 <g id="Capa_x0020_1">
  <metadata id="CorelCorpID_0Corel-Layer"/>
  <g id="_2110422407936">
   <path class="fil0" d="M1812 1554c-96,24 -293,140 -465,276 -192,156 -333,240 -409,240 -66,0 -273,-48 -465,-108 -303,-92 -349,-100 -420,-48 -126,100 -35,180 344,296l454 165 1 1344c-4,452 25,998 10,1110 -35,188 -40,179 -232,211 -314,52 -485,152 -485,280 0,172 121,176 394,20 81,-48 119,-66 250,-118l245 57c160,17 361,132 543,214 445,260 619,340 968,364 394,24 778,-17 1101,-209 394,-228 475,-500 207,-700 -176,-132 -338,-60 -444,196 -258,604 -935,640 -1794,96l-334 -144 -61 -808c-9,-1379 51,-2126 329,-2350 364,-288 617,-240 697,132 71,336 379,324 405,-20 20,-268 -61,-400 -299,-476 -222,-72 -298,-72 -540,-20l0 0z"/>
   <path class="fil1" d="M10647 3954c101,-5 188,-9 264,-13 76,-3 139,-5 190,-5l215 0c-5,-69 -8,-142 -11,-219 -3,-76 -5,-156 -5,-240l0 -215c0,-71 -6,-119 -20,-142 -13,-24 -38,-35 -75,-35 -100,0 -200,79 -300,237 -100,157 -186,368 -258,632zm1061 1122c-64,0 -117,-33 -161,-99 -44,-65 -86,-173 -127,-323 -21,-74 -38,-147 -51,-217 -13,-70 -23,-139 -29,-205 -27,49 -51,82 -72,98 -21,16 -53,24 -93,24 -101,0 -207,-2 -319,-6 -113,-3 -213,-6 -300,-9 -5,45 -8,90 -11,135 -3,46 -5,91 -5,135 0,40 2,79 5,119 3,39 5,77 7,114 7,69 -16,125 -67,167 -51,42 -114,63 -190,63 -65,0 -98,-35 -98,-104 0,-42 9,-105 28,-189 10,-56 18,-105 24,-146 6,-40 9,-73 9,-98 0,-69 -17,-116 -52,-140 -28,-20 -43,-46 -43,-78 0,-30 6,-65 17,-107 11,-42 26,-81 45,-117 18,-36 35,-61 52,-76 14,-10 31,-18 52,-26 20,-7 46,-12 76,-14 80,-277 169,-515 269,-717 99,-201 204,-356 317,-466 112,-110 226,-164 343,-164 71,0 124,29 156,87 33,57 49,154 49,290l0 167c0,249 16,478 46,688 31,209 69,380 114,510 45,139 107,252 187,341 24,25 40,46 49,65 8,18 12,37 12,57 0,37 -12,74 -35,111 -24,37 -54,68 -91,92 -37,25 -74,38 -113,38z"/>
   <path class="fil0" d="M9715 3435c-7,71 -9,128 -9,142 0,234 -18,496 -55,784 -4,20 -12,30 -25,30 -8,0 -17,-10 -27,-30 -94,-276 -212,-545 -353,-808 -141,-263 -299,-514 -475,-753 -26,-35 -57,-67 -92,-98 -34,-31 -77,-47 -128,-47 -51,0 -98,21 -140,62 -42,40 -63,100 -63,179 0,27 2,52 5,74 3,22 7,47 11,74 10,49 19,113 27,192 9,79 13,193 13,341 0,140 -9,282 -25,424 -16,141 -33,272 -49,390 -10,84 -20,165 -29,242 -9,78 -14,144 -14,198 0,106 16,174 48,202 31,28 70,43 115,43 81,0 145,-22 190,-65 45,-43 67,-88 67,-135 0,-40 -11,-84 -34,-134 -24,-56 -43,-115 -55,-175 -12,-61 -18,-133 -18,-217 0,-74 3,-163 9,-268 6,-105 14,-213 24,-324 11,-111 21,-213 31,-307 6,-54 19,-81 40,-81 14,0 33,12 55,37 139,187 272,410 400,668 128,257 235,522 323,793 23,72 56,124 100,156 44,32 88,48 133,48 66,0 117,-27 155,-80 38,-53 57,-125 57,-216 0,-47 -3,-101 -10,-163 -4,-47 -7,-95 -10,-144 -3,-50 -5,-100 -5,-152 0,-91 5,-196 14,-315 9,-118 14,-239 34,-360 14,-88 14,-107 28,-175 25,-120 31,-116 57,-205 29,-103 56,-183 80,-238 25,-55 46,-99 65,-131 10,-20 19,-39 26,-55 8,-16 13,-32 16,-48 7,-38 2,-79 -15,-124 -17,-45 -42,-84 -73,-117 -31,-34 -64,-53 -97,-62 -64,-16 -99,3 -120,52 -22,53 -58,104 -79,176 -22,72 -40,146 -54,222 -17,85 -33,196 -50,333 -7,66 -11,94 -19,165z"/>
   <path class="fil1" d="M7697 5076c-70,0 -124,-26 -163,-77 -40,-51 -59,-138 -59,-261 0,-71 5,-141 15,-209 11,-67 23,-134 37,-198 16,-68 29,-138 40,-209 10,-71 15,-146 15,-226 0,-56 -6,-109 -17,-160 -12,-51 -37,-89 -77,-113 -30,-22 -56,-44 -78,-68 -22,-23 -32,-53 -32,-90 0,-43 15,-89 45,-139 30,-49 70,-91 119,-127 50,-35 101,-53 155,-53 57,0 100,20 126,60 27,40 45,91 54,153 9,61 14,125 14,189 0,99 -6,196 -17,290 -12,94 -24,181 -35,261 -9,59 -16,113 -21,162 -5,49 -7,96 -7,139 0,77 14,135 42,173 27,39 67,75 118,109 20,16 31,39 31,70 0,24 -9,63 -28,115 -18,53 -50,101 -95,144 -45,43 -106,65 -182,65z"/>
   <path class="fil1" d="M7710 3001c-57,-2 -103,-18 -137,-50 -35,-31 -53,-74 -53,-131 2,-60 24,-109 65,-147 41,-38 93,-56 156,-54 59,2 106,18 139,49 34,31 50,75 48,132 -2,58 -22,106 -61,144 -39,38 -91,57 -157,57z"/>
   <path class="fil1" d="M6774 5076c-147,0 -253,-52 -317,-156 -64,-103 -96,-237 -96,-401 0,-58 3,-144 9,-200 6,-57 23,-339 30,-395 7,-56 5,-694 12,-747 7,-54 13,-105 18,-154 -51,16 -102,23 -152,23 -53,0 -80,-23 -80,-69 0,-48 21,-108 62,-178 41,-70 92,-140 154,-209 61,-69 123,-127 184,-175 62,-47 114,-71 158,-71 53,0 80,49 80,146 0,26 -2,52 -6,79 -3,27 -8,54 -12,82 45,-10 92,-19 139,-27 47,-7 92,-11 136,-11 55,0 98,10 129,31 30,20 45,60 45,118 0,62 -14,123 -42,185 -28,61 -58,92 -92,92 -7,0 -20,-2 -36,-4 -17,-3 -38,-6 -62,-12 -31,-7 -71,-15 -120,-23 -48,-7 -106,-11 -174,-11 -16,79 -32,160 -45,243 -13,83 -40,703 -20,1061 9,148 15,278 85,331 70,54 192,53 325,53 41,0 70,7 87,21 17,14 25,39 25,75 0,84 -41,155 -123,214 -82,59 -183,89 -301,89z"/>
   <path class="fil1" d="M5627 5076c-69,0 -123,-26 -163,-77 -39,-51 -59,-138 -59,-261 0,-71 5,-141 16,-209 10,-67 22,-134 36,-198 16,-68 30,-138 40,-209 11,-71 16,-146 16,-226 0,-56 -6,-109 -18,-160 -11,-51 -37,-89 -76,-113 -30,-22 -56,-44 -78,-68 -22,-23 -33,-53 -33,-90 0,-43 15,-89 45,-139 30,-49 70,-91 120,-127 50,-35 101,-53 154,-53 58,0 100,20 127,60 26,40 44,91 54,153 9,61 13,125 13,189 0,99 -5,196 -17,290 -11,94 -23,181 -35,261 -9,59 -16,113 -20,162 -5,49 -7,96 -7,139 0,77 14,135 41,173 28,39 67,75 118,109 21,16 31,39 31,70 0,24 -9,63 -27,115 -19,53 -51,101 -96,144 -45,43 -105,65 -182,65z"/>
   <path class="fil1" d="M5641 2996c-57,-1 -103,-18 -138,-49 -35,-31 -52,-75 -52,-132 2,-60 24,-109 64,-147 41,-38 93,-56 157,-54 59,2 105,18 139,50 34,31 50,75 48,131 -2,58 -23,107 -62,145 -38,38 -91,56 -156,56z"/>
   <path class="fil1" d="M2065 3965c100,-4 188,-9 264,-12 75,-4 139,-6 190,-6l214 0c-4,-69 -7,-142 -10,-218 -3,-77 -5,-157 -5,-241l0 -215c0,-71 -7,-119 -20,-142 -13,-23 -38,-35 -75,-35 -100,0 -200,79 -300,237 -100,158 -186,368 -258,632zm1061 1122c-64,0 -117,-33 -161,-98 -44,-66 -87,-174 -127,-324 -21,-74 -38,-146 -51,-217 -13,-70 -23,-138 -29,-205 -27,49 -51,82 -72,98 -22,16 -53,24 -94,24 -100,0 -206,-2 -318,-5 -113,-4 -213,-7 -301,-10 -4,45 -7,90 -10,135 -3,46 -5,91 -5,135 0,40 2,79 5,119 3,39 5,78 7,115 6,69 -16,124 -67,166 -51,42 -114,63 -190,63 -65,0 -98,-35 -98,-104 0,-42 9,-104 27,-188 11,-57 19,-106 25,-147 6,-40 9,-73 9,-98 0,-69 -17,-116 -52,-140 -29,-20 -43,-46 -43,-78 0,-30 6,-65 17,-107 11,-42 26,-81 44,-117 19,-36 36,-61 53,-76 14,-10 31,-18 52,-26 20,-7 46,-12 76,-14 80,-277 169,-515 268,-716 99,-201 205,-357 318,-467 112,-109 226,-164 343,-164 71,0 123,29 156,87 33,58 49,155 49,290l0 167c0,249 15,478 46,688 31,210 68,380 113,511 45,138 108,251 187,340 25,25 41,46 49,65 9,18 13,37 13,57 0,37 -12,74 -36,111 -23,37 -53,68 -90,93 -37,24 -75,37 -113,37z"/>
   <path class="fil1" d="M4465 5460c12,1 23,2 32,3 17,2 37,4 60,4 8,0 28,-1 60,-2 49,-2 93,-3 132,-3l60 -1c13,0 33,2 59,5 4,5 6,11 6,18l0 67 0 14c0,1 0,3 0,6l-14 0c-1,0 -5,0 -11,0 -2,-5 -4,-11 -8,-20l-13 -23c-5,-10 -12,-20 -21,-30 -6,-2 -13,-3 -21,-3 -2,0 -9,-1 -20,-2 -21,-1 -42,-2 -66,-2 -27,0 -50,0 -71,1 0,6 0,27 0,64l0 55 0 41c5,1 10,1 14,1 39,0 66,-1 83,-2 16,-2 26,-4 30,-7 4,-2 8,-7 11,-14 2,-5 6,-21 11,-48l5 0 19 0c1,19 1,34 1,44 0,23 0,38 0,44 0,7 -1,12 -1,16 0,6 1,15 1,28 1,13 1,23 1,29l0 7 -23 0c-1,-3 -2,-10 -5,-21 -4,-20 -8,-33 -12,-38 -2,-4 -7,-7 -13,-9 -4,-1 -20,-2 -48,-2 -33,0 -58,1 -74,3 0,5 0,9 0,11 0,26 0,47 0,64l0 71c0,8 3,14 9,17 8,5 36,7 82,7 31,0 56,-2 78,-7 14,-3 27,-11 38,-22 15,-14 28,-35 38,-61 6,-1 12,-1 16,-1 3,0 6,0 11,0 -1,6 -1,10 -2,14l-2 10 -12 61 -5 38c-15,0 -26,1 -34,1 -12,0 -45,-1 -98,-3 -37,-2 -82,-3 -135,-3 -26,0 -58,1 -97,4l-13 0 -40 1 0 -23c4,-1 13,-2 25,-3 23,-3 38,-6 47,-11 2,-6 3,-14 3,-24 0,-3 0,-10 0,-19l0 -10 -1 -123 1 -37 -2 -52 1 -37 -3 -41c0,-1 -1,-3 -1,-6 -2,-3 -5,-4 -10,-5 -2,0 -6,-1 -10,-2 -12,-3 -24,-4 -35,-5 -5,0 -9,0 -15,-1l2 -26zm1322 9c2,8 4,19 6,34 2,23 3,40 3,53 0,3 0,8 -1,12l-3 1 -24 -1 -4 -1c-9,-29 -19,-48 -29,-59 -16,-17 -36,-26 -58,-26 -22,0 -39,6 -51,17 -13,11 -19,25 -19,42 0,14 6,27 18,40 13,13 39,25 79,37 13,4 29,10 48,18 19,9 33,19 43,29 13,13 22,26 27,39 5,13 7,28 7,47 0,21 -3,41 -11,61 -4,10 -11,20 -20,30 -7,6 -17,14 -31,23 -13,9 -28,15 -42,19 -15,4 -34,6 -57,6 -16,0 -34,-2 -55,-7l-40 -11c-11,-3 -17,-6 -20,-8 -1,-1 -2,-3 -3,-7l0 -3c0,-3 -1,-18 -2,-45 0,-14 0,-24 0,-30l0 -13 30 0c10,24 17,39 20,44 7,11 14,20 23,27 8,7 18,12 29,16 11,5 24,7 37,7 12,0 25,-3 39,-8 14,-5 25,-13 34,-25 9,-11 13,-23 13,-37 0,-16 -7,-31 -22,-45 -10,-8 -34,-19 -74,-34 -41,-14 -68,-27 -84,-38 -15,-11 -28,-26 -37,-44 -9,-19 -13,-37 -13,-54 0,-35 13,-65 37,-89 25,-24 62,-36 111,-36 10,0 26,2 46,5 13,3 29,7 50,14zm683 -28l20 0c2,2 3,4 3,5 7,11 11,18 14,21 3,1 18,1 45,1 17,0 32,0 45,0l7 -1 39 0 74 0 102 0 19 -2c3,-2 6,-8 9,-17 1,-2 2,-4 4,-8l14 0c2,0 6,0 10,0 0,15 0,38 0,68l1 29 -1 17c0,6 0,11 -1,15 -9,3 -17,4 -24,5 -6,-9 -12,-21 -18,-37 -7,-16 -11,-25 -13,-26 -3,-3 -6,-5 -9,-6 -6,-1 -29,-1 -70,-1 -6,0 -14,0 -23,1 -1,8 -1,15 -1,21l0 44 0 96 1 104 0 43c0,15 1,26 4,34 3,1 10,3 19,4 2,0 10,2 25,5 6,2 12,3 17,5 1,8 2,13 2,15 0,2 -1,4 -1,8 -5,0 -9,0 -12,0 -23,0 -42,0 -58,-2 -15,-2 -44,-2 -85,-2 -7,0 -26,1 -58,4 -12,1 -21,1 -24,1 0,-3 -1,-6 -1,-7l0 -8 0 -3c5,-6 14,-11 27,-14 23,-5 39,-10 48,-14 2,-5 3,-10 3,-17 2,-26 2,-68 2,-125l-1 -124c0,-34 -1,-55 -2,-62 0,-2 -1,-3 -2,-4 -1,-1 -3,-2 -5,-2 -6,-1 -28,-1 -66,-1 -20,0 -34,1 -41,5 -9,6 -23,20 -42,45 -5,6 -10,10 -12,10 -10,-5 -17,-9 -20,-13 7,-14 16,-42 28,-85 4,-13 6,-21 8,-25zm951 443l1 -23c4,-1 11,-3 21,-5 17,-3 27,-6 31,-8 4,-3 8,-9 13,-19l66 -173 78 -204c7,0 14,0 21,0l15 0 2 6 57 135c13,28 25,56 35,83 10,27 19,49 26,66 4,10 10,26 18,46 4,11 10,25 18,42 4,9 8,15 10,16 4,3 10,6 19,7 9,1 19,3 29,7 1,7 2,13 2,16 0,2 0,4 0,8 -17,0 -34,-1 -54,-3 -19,-1 -37,-2 -52,-2 -17,0 -30,0 -38,1l-55 2 -16 1c0,-8 0,-15 1,-22l36 -8c11,-2 17,-5 19,-6 2,-2 3,-5 3,-8 0,-3 0,-5 -1,-8l-13 -33 -26 -64 -125 0c-5,11 -14,36 -29,77 -4,11 -6,19 -6,23 0,6 1,10 4,12 5,5 15,8 29,9 2,1 10,2 24,4 0,8 0,13 0,16 0,2 0,5 -1,7 -13,0 -46,-1 -97,-5l-13 3c-16,2 -32,4 -46,4l-6 0zm154 -184c51,0 81,1 90,1l8 -1c-6,-19 -15,-42 -25,-68 -11,-26 -19,-45 -26,-59l-47 127zm881 -215l-1 -22 28 0 9 -1c14,0 23,-1 28,-1 2,0 10,1 23,1 3,0 5,0 7,0 2,0 9,0 21,0 11,-1 18,-1 20,-1 2,0 5,0 10,0 34,31 61,57 82,79 21,22 99,100 232,232l0 -8 -1 -38c-1,-22 -2,-40 -3,-53 -1,-13 -2,-29 -2,-47 0,-18 -1,-34 -2,-49 -3,-28 -4,-45 -4,-49 0,-15 -2,-23 -5,-26 -4,-5 -15,-9 -31,-11 -12,-2 -21,-5 -27,-8l0 -19 9 -1 64 -2 71 -2c5,0 9,0 14,0l0 21c-5,3 -10,5 -15,6 -14,3 -22,6 -24,7 -11,6 -17,10 -18,11 -2,3 -3,7 -3,13 0,1 1,5 1,13 0,4 0,13 0,28 1,32 2,57 3,75 1,6 1,13 1,20l4 115c0,8 0,14 0,17l0 41 1 17 -1 17c1,9 2,15 2,16l0 18 -38 1 -39 -40 -79 -79 -56 -56 -41 -42c-27,-26 -51,-49 -73,-69l-53 -48 3 121c0,8 0,15 0,23l0 23 2 43c0,18 2,37 3,58 1,6 1,10 2,12 1,2 2,6 4,10 8,3 27,5 56,7 2,0 4,1 8,2l1 28 -12 0c-7,0 -29,-2 -67,-5 -34,1 -58,1 -69,2 -12,1 -18,1 -19,1 -3,0 -7,0 -11,-1 -1,-5 -1,-10 -1,-13 0,-3 0,-7 0,-12 7,-2 12,-2 16,-2 1,0 5,0 12,1 19,0 30,-2 33,-4 4,-3 5,-11 6,-23 1,-34 2,-55 2,-63l0 -18 1 -106 -1 -67c-1,-25 -2,-43 -5,-53 -2,-5 -4,-9 -8,-13 -8,-8 -16,-13 -25,-17 -6,-3 -21,-6 -45,-10zm1548 -18c3,7 9,25 18,56 4,14 6,29 6,44l-30 0c-21,-29 -42,-51 -65,-63 -22,-13 -47,-20 -74,-20 -34,0 -62,13 -82,40 -29,35 -43,85 -43,149 0,37 3,63 8,79 7,26 17,46 29,62 10,13 21,22 36,29 20,10 40,15 62,15 24,0 47,-7 70,-22 22,-15 43,-37 64,-67 8,-1 19,-2 32,-3 -1,9 -3,17 -5,26 0,4 -3,18 -7,42l-3 9 -4 16c-14,10 -33,18 -57,23 -24,5 -53,8 -89,8 -26,0 -52,-3 -76,-8 -24,-5 -44,-13 -61,-24 -25,-15 -45,-32 -59,-51 -14,-18 -24,-38 -31,-59 -7,-22 -11,-46 -11,-73 0,-65 22,-119 65,-161 43,-42 97,-63 164,-63 27,0 53,1 76,4 24,2 47,7 67,12zm662 417l0 -24c5,-1 12,-3 22,-5 14,-4 25,-7 32,-11 4,-7 6,-16 6,-28l0 -39 0 -75 0 -17c1,-44 2,-66 2,-67l0 -44 0 -17 -1 -38 0 -14c0,-2 -1,-6 -3,-10 -9,-5 -23,-7 -43,-8 -5,0 -9,-1 -12,-1l-1 -29 94 4c11,1 19,1 21,1 13,0 34,-1 62,-3 16,-1 26,-1 30,-2 0,4 1,8 1,11 0,3 -1,8 -1,14 -9,3 -19,6 -30,9 -11,2 -21,5 -28,8 -1,6 -2,14 -2,24 0,10 1,18 1,23 0,37 -1,66 -1,86l1 86 -1 44 0 65 0 13c0,2 1,4 1,7 14,3 26,5 37,6 2,0 8,1 20,3 1,7 1,12 1,16 0,3 0,6 0,11 -3,0 -5,1 -7,1 -7,0 -11,0 -12,0 -1,0 -4,0 -8,-1 -3,0 -18,-2 -44,-4l-58 -1c-12,0 -28,1 -50,3 -15,2 -24,3 -29,3zm814 0l0 -23c5,-1 12,-3 22,-5 17,-3 27,-6 31,-8 3,-3 8,-9 13,-19l66 -173 77 -204c8,0 15,0 21,0l15 0 3 6 57 135c13,28 24,56 35,83 10,27 19,49 26,66 4,10 10,26 18,46 4,11 10,25 18,42 4,9 8,15 10,16 4,3 10,6 19,7 9,1 19,3 29,7 1,7 2,13 2,16 0,2 0,4 -1,8 -16,0 -34,-1 -53,-3 -20,-1 -37,-2 -52,-2 -18,0 -30,0 -38,1l-55 2 -17 1c0,-8 1,-15 1,-22l37 -8c11,-2 17,-5 19,-6 2,-2 3,-5 3,-8 0,-3 0,-5 -2,-8l-13 -33 -25 -64 -125 0c-5,11 -15,36 -29,77 -4,11 -6,19 -6,23 0,6 1,10 4,12 5,5 15,8 29,9 2,1 10,2 23,4 1,8 1,13 1,16 0,2 -1,5 -1,7 -14,0 -46,-1 -97,-5l-13 3c-16,2 -32,4 -46,4l-6 0zm154 -184c51,0 81,1 90,1l8 -1c-6,-19 -15,-42 -25,-68 -11,-26 -20,-45 -26,-59l-47 127z"/>
   <path class="fil0" d="M11704 1409c192,-29 442,241 254,565 -21,37 -90,-15 -129,-45 -597,-467 -179,-523 -125,-520zm-810 -807l-115 -143c-19,-21 -36,-43 -55,-63 -41,-43 -84,-72 -157,-80 -153,-18 -256,-103 -324,-219 -20,-35 -38,-85 15,-97 199,50 309,64 395,254 9,21 11,46 26,63 35,40 160,187 199,226 8,-19 -53,-80 -76,-177 -9,-99 20,-162 100,-238 25,-23 44,-22 55,7 17,44 34,91 39,138 11,102 -1,201 -104,278 37,56 55,106 97,169 27,44 38,76 62,159 30,85 48,169 47,224 1,9 -3,56 -11,120l15 6 64 30 104 49c0,0 138,54 138,54 172,-41 344,-133 509,-26 417,270 114,734 131,717 115,1209 142,1424 366,1760 164,190 331,256 880,42 310,-148 365,-222 231,-534 -160,-383 -297,-491 -742,-491 -194,0 -485,125 -513,69 -41,-81 35,-128 170,-174 159,-34 197,-52 431,-77 439,-24 707,213 833,590 43,127 90,230 108,230 51,0 448,-469 582,-683 121,-193 225,-197 177,-8 -39,136 -336,568 -522,757 -86,87 -155,173 -155,194 0,94 284,534 397,608 164,116 134,139 -61,139 -198,-33 -318,-82 -466,-398l-90 -193 -139 90c-77,50 -224,128 -323,169l-182 78 0 445 -5 462c68,5 372,61 370,106 0,18 0,23 -26,27 -429,-15 -503,-16 -902,0 -33,1 -44,-1 -48,-19 -6,-24 46,-48 258,-95l126 -24 -6 -466c-4,-337 -17,-448 -60,-448 -810,0 -771,-1552 -836,-2094 -63,-8 -118,-60 -205,-119l-42 -36c-213,-192 -227,-297 -302,-485 -68,-37 -136,-73 -203,-110 -25,-14 -49,-27 -74,-42 -21,165 -51,369 -65,420 -42,137 -35,245 -6,334 28,87 65,171 97,257 -37,28 -178,-336 -145,-534 -24,4 -26,5 -45,7 -168,-12 -220,-39 -303,-112 -18,-23 -117,-139 -123,-166 43,-10 86,-25 130,-28 436,33 289,671 440,-189 -42,-25 -90,-54 -155,-94l-378 -234 547 231 8 -66c12,-130 -25,-198 -60,-323 -81,41 -165,57 -252,53 -104,-4 -199,-29 -273,-94 -38,-33 -35,-51 16,-74 76,-34 156,-47 239,-40 88,7 188,47 261,125 -10,-21 -36,-73 -43,-85 -23,-37 -46,-74 -71,-109z"/>
   <path class="fil1" d="M4342 4717l54 -2302 -469 -83c-128,-34 -197,-62 -263,-91 -41,-19 -87,-56 -141,-90 -196,-121 -246,-244 -186,-442 78,-255 350,-182 359,93 5,155 76,273 198,286 358,66 411,70 604,20 119,-56 240,-109 453,-259 191,-130 409,-242 516,-265l0 0c269,-50 353,-50 599,19 264,73 353,200 331,458 -28,331 -370,342 -448,19 -90,-358 -370,-404 -773,-127 -95,73 -404,306 -407,453 -11,423 -3,1103 0,1838 2,53 3,110 3,170 0,98 9,184 27,259 18,74 56,137 112,191 39,39 59,82 59,127 0,61 -35,118 -105,168 -70,50 -202,76 -314,76 -34,0 -68,-6 -103,-17 -35,-11 -64,-38 -87,-80 -22,-42 -33,-107 -33,-194 0,-62 5,-137 14,-227z"/>
  </g>
 </g>
</svg>
